<svg xmlns="http://www.w3.org/2000/svg" viewBox="0 0 200 200" width="200" height="200">
  <rect width="100%" height="100%" fill="#EC1B23"/>
  <circle cx="100" cy="100" r="70" fill="#FFF"/>
  <path fill="#000" d="M94.4,118.9c-5.1-2.7-8.5-4.6-8.5-8.2c0-3.2,2.6-5.2,7.2-5.2c5.2,0,7.5,2.3,9.7,5.5l5.1-2 c-3.2-6-8.2-9.4-17-9.4c-13,0-22.7,10.7-22.7,24.3c0,13.2,9.3,24.3,22.4,24.3c9.6,0,14-3.9,17-9.8l-5.3-1.7 c-2.1,6-4.7,9.2-9.4,11.9c-5.7,2.8-10.9,2.7-13.3,0.4c-2.5-2.2-2.4-6.2,0.3-12L75,118C74.8,118.2,74.6,118.5,74.4,118.9z"/>
</svg>
